<svg width="183" height="236" viewBox="0 0 183 236" fill="none" xmlns="http://www.w3.org/2000/svg">
<mask id="mask0_194_27" style="mask-type:luminance" maskUnits="userSpaceOnUse" x="28" y="42" width="127" height="151">
<path d="M28.9492 42.457H154.35V192.502H28.9492V42.457Z" fill="white"/>
</mask>
<g mask="url(#mask0_194_27)">
<path d="M136.675 129.121C136.335 129.121 136.335 129.121 136.675 129.121L136.335 125.997C136.335 124.269 134.949 122.881 133.216 122.534C132.176 122.534 131.137 122.187 130.104 122.187L129.757 121.84C123.179 115.947 115.908 111.789 108.29 109.36C119.367 103.467 126.985 91.6815 126.985 78.1607C126.985 58.4 111.063 42.457 91.3292 42.457C71.5952 42.457 55.6664 58.4 55.6664 78.1607C55.6664 91.6815 63.2842 103.467 74.3607 109.36C66.7501 111.789 59.4789 115.947 52.9009 121.492C52.9009 121.492 52.5543 121.84 52.5543 122.187C51.5146 122.187 50.4748 122.187 49.435 122.534C47.7021 122.881 46.3229 124.269 46.3229 125.997V128.773C45.9763 129.121 45.6297 129.121 45.6297 129.468C35.2392 142.988 29.0078 161.361 29.0078 178.692C29.0078 180.774 30.3942 182.163 32.4737 182.163H46.6695C46.6695 182.857 47.0161 183.544 47.7021 183.891C48.3952 184.585 49.435 184.932 50.4748 184.932C75.0539 182.51 89.5962 191.519 89.5962 191.866C89.5962 191.866 89.9428 191.866 89.9428 192.213H90.2894C90.636 192.213 90.636 192.213 90.9826 192.213H91.3292C91.6758 192.213 92.0224 192.213 92.3617 192.213C92.3617 192.213 92.3617 192.213 92.7083 192.213C93.0549 192.213 93.0549 192.213 93.4015 191.866C93.4015 191.866 107.944 182.51 132.523 184.932C133.563 184.932 134.603 184.585 135.296 183.891C135.642 183.544 135.989 182.857 136.335 182.163H150.524C152.604 182.163 153.99 180.774 153.99 178.692C153.99 159.973 147.759 142.294 136.675 129.121ZM62.591 78.1607C62.591 62.2105 75.4005 49.3837 91.3292 49.3837C107.251 49.3837 120.06 62.2105 120.06 78.1607C120.06 94.1037 107.251 106.93 91.3292 106.93C75.4005 106.93 62.591 94.1037 62.591 78.1607ZM118.674 122.187C104.485 123.228 95.1345 127.385 91.3292 129.468C87.5167 127.385 78.1732 123.228 63.9774 122.187C72.2884 116.641 81.6319 113.864 91.3292 113.864C101.019 113.864 110.37 116.641 118.674 122.187ZM46.3229 140.906V175.229H35.9324C36.279 163.443 40.0915 150.964 46.3229 140.906ZM129.411 177.651C109.33 176.27 96.1742 182.163 91.3292 184.932C86.4769 182.51 73.3209 176.61 53.2475 177.651V129.121C75.747 127.732 89.2496 136.054 89.5962 136.054C89.9428 136.054 90.2894 136.402 90.2894 136.402H90.636C90.9826 136.402 91.3292 136.402 91.6758 136.402H92.0224C92.3617 136.402 92.7083 136.054 93.0549 136.054C93.0549 136.054 93.0549 136.054 93.4015 136.054C93.7481 135.707 106.904 127.385 129.411 129.121V177.651ZM136.335 175.229V140.906C142.567 150.964 146.372 162.749 146.719 175.229H136.335Z" fill="white"/>
</g>
</svg>
