<svg width="183" height="236" viewBox="0 0 183 236" fill="none" xmlns="http://www.w3.org/2000/svg">
<mask id="mask0_196_91" style="mask-type:luminance" maskUnits="userSpaceOnUse" x="31" y="49" width="122" height="137">
<path d="M31.043 49.8906H152.306V185.099H31.043V49.8906Z" fill="white"/>
</mask>
<g mask="url(#mask0_196_91)">
<path d="M151.932 99.1151V110.698C151.932 116.02 147.628 120.351 142.335 120.351C137.043 120.351 132.739 116.02 132.739 110.698V102.26C132.732 102.166 132.689 102.08 132.689 101.986C132.689 78.5808 114.175 59.5432 91.4226 59.5432C69.1974 59.5432 51.0664 77.7276 50.2433 100.388V112.629C50.2433 119.013 55.406 124.212 61.7602 124.212C63.8758 124.212 65.5943 125.94 65.5943 128.073C65.5943 130.206 63.8758 131.934 61.7602 131.934C53.6731 131.934 46.7701 126.858 43.9469 119.722C42.9143 120.112 41.8095 120.351 40.647 120.351C35.3543 120.351 31.0508 116.02 31.0508 110.698V99.1151C31.0508 93.7936 35.3543 89.4626 40.647 89.4626C41.138 89.4626 41.6074 89.5349 42.0767 89.6072C47.5211 66.8531 67.5511 49.8906 91.4226 49.8906C115.301 49.8906 135.331 66.8531 140.776 89.6216C141.288 89.5349 141.801 89.4626 142.335 89.4626C147.628 89.4626 151.932 93.7936 151.932 99.1151ZM123.063 101.986C123.063 84.4085 108.897 70.1574 91.4226 70.1574C73.9486 70.1574 59.7817 84.4085 59.7817 101.986C59.7817 119.563 73.9486 133.814 91.4226 133.814C108.897 133.814 123.063 119.563 123.063 101.986ZM122.926 143.466H111.655C109.149 143.466 106.803 144.703 105.366 146.771L97.4879 158.108C94.4119 162.54 87.87 162.497 84.8446 158.021L77.3062 146.85C75.8765 144.732 73.5009 143.466 70.9521 143.466H59.89C45.6437 143.466 34.0979 155.086 34.0979 169.416V180.934C34.0979 183.067 35.8164 184.795 37.9321 184.795H144.884C147 184.795 148.718 183.067 148.718 180.934V169.416C148.718 155.086 137.173 143.466 122.926 143.466Z" fill="white"/>
</g>
</svg>
