<svg xmlns:xlink="http://www.w3.org/1999/xlink" width="705" height="604" fill="none"><path fill="#1C0140" d="m352 477 58-28 6 24-58 35-4-8z"/><path fill="#5284FF" d="M358 483v25l-102-61v-16"/><path fill="#9FCDFF" d="m405 464-47 28-102-61 45-27m194-130 12-68a36 36 0 0 0-13-14L213 25a28 28 0 0 0-29 0l-14 9a24 24 0 0 0-11 20v7l216 323z"/><path fill="#1C0140" d="M381 434v24l-23 14-11-17 10-33m154 49V224a37 37 0 0 0-4-18l-41 23-91 155 77 114 9 5a22 22 0 0 0 22 0l15-9a27 27 0 0 0 13-23"/><path fill="#5284FF" d="M587 554a5 5 0 0 1-7 2l-16-9a49 49 0 0 0-50 0l-45 27a72 72 0 0 1-37 10 72 72 0 0 1-36-10c-9-5-15-15-15-26a29 29 0 0 1 14-24l21-13a21 21 0 0 0 10-18v-10l-68-41v30l-66-39v-30l-123-73a20 20 0 0 1-10-17V57c0-7 8-12 14-8l288 171a22 22 0 0 1 11 19v248c0 10-11 17-20 11l-16-10v5c0 11-6 21-15 26l-21 13a20 20 0 0 0-10 17c1 7 4 13 10 16a63 63 0 0 0 64 0l45-27a58 58 0 0 1 60 0l16 10a5 5 0 0 1 2 6m-106-67 24-15a3 3 0 0 0 2-2c0-2-3-3-4-2l-25 14a3 3 0 0 0-1 3c0 2 2 3 4 2m0-11 24-15a3 3 0 0 0 2-2c0-2-3-4-4-2l-25 14a3 3 0 0 0-1 2c0 2 2 4 4 3m0-12 24-14a3 3 0 0 0 2-3c0-2-3-3-4-2l-25 15a3 3 0 0 0-1 2c0 2 2 3 4 2m0-11 24-15a3 3 0 0 0 2-2c0-2-3-3-4-2l-25 15a3 3 0 0 0-1 2c0 2 2 3 4 2m0-11 24-15a3 3 0 0 0 2-2c0-2-3-3-4-2l-25 14a3 3 0 0 0-1 3c0 2 2 3 4 2m0-11 24-15a3 3 0 0 0 2-2c0-2-3-4-4-3l-25 15a3 3 0 0 0-1 2c0 2 2 4 4 3"/><mask id="a" width="433" height="567" x="157" y="19" maskUnits="userSpaceOnUse" style="mask-type:luminance"><path fill="#fff" d="M157 20h432v566H157z"/></mask><g mask="url(#a)"><path fill="#1C0140" d="M445 462 180 305a19 19 0 0 1-10-16V73c0-6 6-9 11-6l268 159a23 23 0 0 1 11 20v207c0 8-9 13-15 9m-129-71c-4-2-9 1-9 6 0 6 4 11 8 14 5 2 9-1 9-5s-3-11-8-15m272 164a6 6 0 0 1-4 3 6 6 0 0 1-4 0l-16-10a48 48 0 0 0-49 0l-45 27a74 74 0 0 1-38 10 74 74 0 0 1-36-9 31 31 0 0 1-16-28 30 30 0 0 1 14-26l21-12c6-4 10-10 10-17v-9l-12-7-53 32a2 2 0 0 1-2 0 2 2 0 0 1-1 0l-1-1-102-60v-18l1-1 35-20v-5l-122-72a22 22 0 0 1-11-19V54c0-9 5-17 13-22l13-8a29 29 0 0 1 30 0l281 167a38 38 0 0 1 19 33v247c0 10-5 20-14 25l-15 9a23 23 0 0 1-24 0l-9-5-14-9v2c0 11-6 22-15 28l-21 12a18 18 0 0 0-9 16 18 18 0 0 0 9 15 61 61 0 0 0 62 0l46-27a60 60 0 0 1 61 0l16 9a7 7 0 0 1 2 9M161 48a11 11 0 0 1 13-1l288 171a24 24 0 0 1 12 21v248c0 5-3 10-8 13a15 15 0 0 1-5 2h1a20 20 0 0 0 20 0l15-9a25 25 0 0 0 13-22V224c0-6-2-12-5-18a34 34 0 0 0-12-12L212 27a26 26 0 0 0-27 0l-14 8a22 22 0 0 0-10 13m9 281 283 168q6 3 12 0a12 12 0 0 0 5-10V239c0-7-3-14-9-18L172 50a8 8 0 0 0-4-1 8 8 0 0 0-3 1 8 8 0 0 0-4 7v256a19 19 0 0 0 9 16m123 103 63 37v-19l-63-37zm67 37 19-12-19-12zm-101-38 99 59 38-23-13-8-25 14-2-1h-1l-65-38v-21zm-2 15 99 58 1 1v-12l-100-59zm153 29-10-6-40 24v12zm174 74-16-9a57 57 0 0 0-58 0l-45 27a64 64 0 0 1-66 0 21 21 0 0 1-10-18 22 22 0 0 1 10-19l21-12a29 29 0 0 0 14-25v-4l-6-3v7a23 23 0 0 1-11 20l-21 12a27 27 0 0 0-13 23 28 28 0 0 0 14 25 70 70 0 0 0 35 9 70 70 0 0 0 36-10l45-27a51 51 0 0 1 52 0l16 10a3 3 0 0 0 2 0 3 3 0 0 0 2-1 3 3 0 0 0-1-5"/></g><mask id="b" width="281" height="289" x="163" y="136" maskUnits="userSpaceOnUse" style="mask-type:luminance"><path fill="#fff" d="M164 137h280v288H164z"/></mask><g mask="url(#b)"><mask id="d" width="281" height="289" x="163" y="136" maskUnits="userSpaceOnUse" style="mask-type:luminance"><path fill="url(#c)" d="M164 137h280v288H164z"/></mask><g mask="url(#d)"><path fill="url(#e)" d="M164 137h280v288H164z"/></g></g><defs><pattern id="c" width="1" height="1" patternContentUnits="objectBoundingBox"><use xlink:href="#f" transform="scale(.00109)"/></pattern><pattern id="e" width="1" height="1" patternContentUnits="objectBoundingBox"><use xlink:href="#g" transform="scale(.00109)"/></pattern></defs></svg>