<svg width="33" height="33" viewBox="0 0 33 33" fill="none" xmlns="http://www.w3.org/2000/svg">
<path d="M16.5 15.9879C17.8789 15.9879 19.2013 15.4402 20.1763 14.4652C21.1513 13.4902 21.699 12.1678 21.699 10.7889C21.699 9.41002 21.1513 8.08762 20.1763 7.11261C19.2013 6.1376 17.8789 5.58984 16.5 5.58984C15.1211 5.58984 13.7987 6.1376 12.8237 7.11261C11.8487 8.08762 11.301 9.41002 11.301 10.7889C11.301 12.1678 11.8487 13.4902 12.8237 14.4652C13.7987 15.4402 15.1211 15.9879 16.5 15.9879ZM16.5 18.2722C9.58753 18.2722 5.15625 22.0867 5.15625 23.944V27.4121H27.8438V23.944C27.8438 21.698 23.6486 18.2722 16.5 18.2722Z" fill="white"/>
</svg>
