<svg width="33" height="33" viewBox="0 0 33 33" fill="none" xmlns="http://www.w3.org/2000/svg">
<g clip-path="url(#clip0_377_2999)">
<path fill-rule="evenodd" clip-rule="evenodd" d="M2.75 0H9.625C11.1438 0 12.375 1.23122 12.375 2.75V9.625C12.375 11.1438 11.1438 12.375 9.625 12.375H2.75C1.23122 12.375 0 11.1438 0 9.625V2.75C0 1.23122 1.23122 0 2.75 0ZM2.75 15.125H9.625C11.1438 15.125 12.375 16.3562 12.375 17.875V30.25C12.375 31.7688 11.1438 33 9.625 33H2.75C1.23122 33 0 31.7688 0 30.25V17.875C0 16.3562 1.23122 15.125 2.75 15.125ZM17.875 0H30.25C31.7688 0 33 1.23122 33 2.75V17.875C33 19.3938 31.7688 20.625 30.25 20.625H17.875C16.3562 20.625 15.125 19.3938 15.125 17.875V2.75C15.125 1.23122 16.3562 0 17.875 0ZM17.875 23.375H30.25C31.7688 23.375 33 24.6062 33 26.125V30.25C33 31.7688 31.7688 33 30.25 33H17.875C16.3562 33 15.125 31.7688 15.125 30.25V26.125C15.125 24.6062 16.3562 23.375 17.875 23.375Z" fill="white"/>
</g>
<defs>
<clipPath id="clip0_377_2999">
<rect width="33" height="33" fill="white"/>
</clipPath>
</defs>
</svg>
