<svg width="33" height="33" viewBox="0 0 33 33" fill="none" xmlns="http://www.w3.org/2000/svg">
<path fill-rule="evenodd" clip-rule="evenodd" d="M24.75 22V5.5C24.75 4.77065 24.4603 4.07118 23.9445 3.55546C23.4288 3.03973 22.7293 2.75 22 2.75H5.5C4.77065 2.75 4.07118 3.03973 3.55546 3.55546C3.03973 4.07118 2.75 4.77065 2.75 5.5V22C2.75 22.7293 3.03973 23.4288 3.55546 23.9445C4.07118 24.4603 4.77065 24.75 5.5 24.75H22C22.7293 24.75 23.4288 24.4603 23.9445 23.9445C24.4603 23.4288 24.75 22.7293 24.75 22ZM30.25 6.875V23.375C30.25 25.1984 29.5257 26.947 28.2364 28.2364C26.947 29.5257 25.1984 30.25 23.375 30.25H9.625C9.26033 30.25 8.91059 30.1051 8.65273 29.8473C8.39487 29.5894 8.25 29.2397 8.25 28.875C8.25 28.5103 8.39487 28.1606 8.65273 27.9027C8.91059 27.6449 9.26033 27.5 9.625 27.5H23.375C24.469 27.5 25.5182 27.0654 26.2918 26.2918C27.0654 25.5182 27.5 24.469 27.5 23.375V6.875C27.5 6.51033 27.6449 6.16059 27.9027 5.90273C28.1606 5.64487 28.5103 5.5 28.875 5.5C29.2397 5.5 29.5894 5.64487 29.8473 5.90273C30.1051 6.16059 30.25 6.51033 30.25 6.875ZM12.7777 18.8473C13.0356 19.1051 13.3853 19.25 13.75 19.25C14.1147 19.25 14.4644 19.1051 14.7223 18.8473C14.9801 18.5894 15.125 18.2397 15.125 17.875V15.125H17.875C18.2397 15.125 18.5894 14.9801 18.8473 14.7223C19.1051 14.4644 19.25 14.1147 19.25 13.75C19.25 13.3853 19.1051 13.0356 18.8473 12.7777C18.5894 12.5199 18.2397 12.375 17.875 12.375H15.125V9.625C15.125 9.26033 14.9801 8.91059 14.7223 8.65273C14.4644 8.39487 14.1147 8.25 13.75 8.25C13.3853 8.25 13.0356 8.39487 12.7777 8.65273C12.5199 8.91059 12.375 9.26033 12.375 9.625V12.375H9.625C9.26033 12.375 8.91059 12.5199 8.65273 12.7777C8.39487 13.0356 8.25 13.3853 8.25 13.75C8.25 14.1147 8.39487 14.4644 8.65273 14.7223C8.91059 14.9801 9.26033 15.125 9.625 15.125H12.375V17.875C12.375 18.2397 12.5199 18.5894 12.7777 18.8473Z" fill="white"/>
</svg>
