<svg width="80" height="80" viewBox="0 0 80 80" fill="none" xmlns="http://www.w3.org/2000/svg">
<g clip-path="url(#clip0_298_1117)">
<path d="M67.6475 25.9359C61.1416 20.8316 51.0641 14.7471 40 14.7471C28.9848 14.7471 18.8835 20.9069 12.3493 26.0744C5.88624 31.1857 0 37.8233 0 40.0003C0 42.4816 5.65819 48.9831 12.3557 54.1974C17.6591 58.3265 28.303 65.2535 40 65.2535C51.7029 65.2535 62.3432 58.3362 67.6441 54.2128C74.3418 49.0029 80.0002 42.4945 80.0002 40.0003C80 37.6707 74.2278 31.0986 67.6475 25.9359ZM40 56.5388C30.8661 56.5388 23.4617 49.1342 23.4617 40.0005C23.4617 30.8666 30.8661 23.4622 40 23.4622C49.1339 23.4622 56.5383 30.8666 56.5383 40.0005C56.5383 49.1342 49.1339 56.5388 40 56.5388Z" fill="black" fill-opacity="0.5"/>
</g>
<defs>
<clipPath id="clip0_298_1117">
<rect width="80" height="80" fill="white"/>
</clipPath>
</defs>
</svg>
