<svg width="200" height="200" viewBox="0 0 200 200" fill="none" xmlns="http://www.w3.org/2000/svg">
<path d="M87.4997 127.083C85.8914 126.961 84.3964 126.212 83.3329 125L58.3328 99.9998C57.7758 98.834 57.5941 97.524 57.8127 96.2498C58.0313 94.9757 58.6394 93.8015 59.5533 92.8873C60.4672 91.9732 61.6419 91.3648 62.9158 91.1465C64.1896 90.9282 65.4999 91.1098 66.6662 91.6665L87.2497 112.25L158.333 41.6668C159.499 41.1098 160.81 40.9281 162.083 41.1467C163.357 41.3653 164.532 41.9733 165.446 42.8873C166.36 43.8012 166.968 44.9759 167.186 46.2498C167.405 47.5237 167.223 48.8339 166.666 50.0002L91.6664 125C90.603 126.212 89.1072 126.961 87.4997 127.083Z" fill="white"/>
<path d="M100.001 175C86.5968 174.978 73.4427 171.365 61.9086 164.536C50.3744 157.706 40.8815 147.91 34.4176 136.166C29.5041 127.416 26.4673 117.739 25.5009 107.75C23.9757 93.1006 26.7977 78.3265 33.6146 65.2705C40.4316 52.2146 50.9418 41.4548 63.8342 34.3334C72.5844 29.4199 82.2621 26.3831 92.251 25.4167C102.202 24.3462 112.267 25.3102 121.834 28.25C122.688 28.4206 123.497 28.7677 124.208 29.2691C124.92 29.7704 125.519 30.415 125.968 31.1615C126.416 31.9079 126.703 32.7399 126.812 33.6039C126.919 34.4678 126.846 35.3448 126.595 36.1786C126.344 37.0124 125.922 37.7847 125.355 38.4458C124.788 39.1069 124.09 39.6424 123.305 40.0179C122.519 40.3934 121.663 40.6005 120.793 40.6261C119.923 40.6518 119.057 40.4953 118.251 40.1667C110.156 37.7327 101.657 36.9394 93.251 37.8334C84.9426 38.6841 76.8922 41.2069 69.5842 45.25C62.5437 49.1342 56.3187 54.3404 51.2509 60.5834C46.0331 66.943 42.1367 74.2799 39.7899 82.1643C37.4432 90.0489 36.6933 98.3223 37.5842 106.5C38.435 114.808 40.9578 122.859 45.0009 130.166C48.8851 137.207 54.0913 143.432 60.3342 148.5C66.6939 153.718 74.0307 157.614 81.9152 159.961C89.7993 162.307 98.0726 163.057 106.251 162.166C114.559 161.316 122.609 158.793 129.918 154.75C136.958 150.866 143.183 145.66 148.251 139.416C153.468 133.057 157.365 125.72 159.712 117.836C162.058 109.951 162.808 101.678 161.918 93.4998C161.835 92.6406 161.923 91.7739 162.176 90.9489C162.429 90.1239 162.842 89.3564 163.392 88.6914C163.941 88.0256 164.616 87.4748 165.378 87.0706C166.141 86.6656 166.975 86.4156 167.834 86.3331C168.693 86.2514 169.56 86.3389 170.385 86.5923C171.21 86.8448 171.978 87.2581 172.643 87.8073C173.308 88.3564 173.859 89.0323 174.263 89.7939C174.668 90.5564 174.918 91.3906 175.001 92.2498C176.518 106.908 173.684 121.688 166.852 134.746C160.019 147.802 149.492 158.557 136.584 165.666C127.741 170.781 117.913 173.962 107.751 175C105.168 175 102.501 175 100.001 175Z" fill="white"/>
</svg>
