<svg width="80" height="80" viewBox="0 0 80 80" fill="none" xmlns="http://www.w3.org/2000/svg">
<path d="M77.25 14.0004C77 13.0004 76 12.5004 75 12.5004H67.5V5.00036C67.5 4.00036 67 3.00036 66 2.75036C65 2.25036 64 2.50036 63.25 3.25036L53.25 13.2504C52.75 13.7504 52.5 14.2504 52.5 15.0004V24.0004L38.25 38.2504C37.25 39.2504 37.25 40.7504 38.25 41.7504C38.75 42.2504 39.5 42.5004 40 42.5004C40.5 42.5004 41.25 42.2504 41.75 41.7504L56 27.5004H65C65.75 27.5004 66.25 27.2504 66.75 26.7504L76.75 16.7504C77.5 16.0004 77.75 15.0004 77.25 14.0004Z" fill="black" fill-opacity="0.5"/>
<path d="M45.25 45.25C44 46.75 42 47.5 40 47.5C38 47.5 36 46.75 34.75 45.25C31.75 42.25 31.75 37.5 34.75 34.75L41.75 27.75C41.25 27.5 40.5 27.5 40 27.5C33 27.5 27.5 33 27.5 40C27.5 47 33 52.5 40 52.5C47 52.5 52.5 47 52.5 40C52.5 39.5 52.5 38.75 52.25 38.25L45.25 45.25Z" fill="black" fill-opacity="0.5"/>
<path d="M70.25 30.25C69 31.75 67 32.5 65 32.5H58L56.25 34.25C57 36 57.25 38 57.25 40C57.25 49.75 49.5 57.5 39.75 57.5C30 57.5 22.25 49.75 22.25 40C22.25 30.25 30 22.5 39.75 22.5C41.75 22.5 43.75 23 45.5 23.5L47.5 22V15C47.5 13 48.25 11 49.75 9.75L52.25 7.25C48.25 5.75 44.25 5 40 5C20.75 5 5 20.75 5 40C5 59.25 20.75 75 40 75C59.25 75 75 59.25 75 40C75 35.75 74.25 31.75 72.75 27.75L70.25 30.25Z" fill="black" fill-opacity="0.5"/>
</svg>
