<svg width="100" height="100" viewBox="0 0 100 100" fill="none" xmlns="http://www.w3.org/2000/svg">
<path d="M92.5025 12.3359L53.9381 0.57168C52.6936 0.192578 51.3686 0 50.0008 0C48.6326 0 47.3076 0.192578 46.0631 0.57168L7.49785 12.3359C6.82266 12.5437 6.38672 13.0213 6.38672 13.5566C6.38672 14.0918 6.82266 14.5695 7.49824 14.7773L25.35 20.2227V35.3063C25.3545 43.1051 28.0059 50.5961 32.8156 56.3963C35.127 59.1803 37.7871 61.3912 40.7225 62.9652C43.8359 64.6379 47.0641 65.4855 50.317 65.4855C53.5682 65.4855 56.7967 64.6379 59.9119 62.9652C64.3254 60.5936 68.1228 56.7844 70.8936 51.9516C73.7645 46.9354 75.2824 41.1791 75.2838 35.3063V20.0301L84.1205 17.334V29.8715C82.9096 30.0246 81.9707 31.0619 81.9707 32.3129C81.9707 33.4016 82.6834 34.3449 83.7035 34.6588L81.8293 47.025C81.7834 47.3328 81.8729 47.6438 82.0758 47.8816C82.2793 48.1168 82.5746 48.2531 82.8859 48.2531H89.9705C90.2814 48.2531 90.5768 48.1166 90.7807 47.8801C90.983 47.6451 91.0729 47.3326 91.0272 47.0234L89.1529 34.6588C90.173 34.3449 90.8857 33.4018 90.8857 32.3129C90.8857 31.0619 89.9463 30.0246 88.7352 29.8715V15.9266L92.5031 14.7771C93.1783 14.5693 93.6146 14.0902 93.6146 13.5564C93.6144 13.0229 93.1781 12.5436 92.5025 12.3359ZM50.317 58.1779C48.2832 58.1779 46.2166 57.6228 44.1748 56.5266C41.0119 54.8373 38.1381 51.9242 36.0814 48.3213C35.1334 46.6654 34.3635 44.8639 33.7906 42.9609C45.6807 40.8563 53.0309 33.3166 57.1771 27.1465C59.1775 31.2043 62.5797 36.2781 67.7684 38.6012C67.1588 43.4809 65.1848 48.1348 62.1957 51.7285C60.5129 53.7605 58.5291 55.4195 56.4584 56.5279C54.4158 57.6229 52.3492 58.1779 50.317 58.1779Z" fill="black" fill-opacity="0.5"/>
<path d="M73.007 61.373L72.8109 61.2502L51.2225 80.249L29.6336 61.25L29.4375 61.3729C22.2396 65.8721 14.5898 78.1018 14.5898 91.9053V92.0918L14.7551 92.1797C14.9025 92.2588 29.773 100 51.2225 100C72.6715 100 87.5424 92.2588 87.6897 92.1801L87.8549 92.0922V91.9057C87.8551 78.1018 80.2049 65.8721 73.007 61.373Z" fill="black" fill-opacity="0.5"/>
</svg>
