<svg width="33" height="33" viewBox="0 0 33 33" fill="none" xmlns="http://www.w3.org/2000/svg">
<g clip-path="url(#clip0_424_6697)">
<path d="M31.9457 0.381836H14.4033C13.8197 0.381836 13.3477 0.855345 13.3477 1.43809V8.88828L14.1109 7.99588C14.4734 7.5716 14.9512 7.30996 15.459 7.20065V2.49395H30.89V16.2859H15.4591V13.9772L14.9837 14.5331C14.5682 15.0179 13.9818 15.3187 13.3477 15.378V17.3419C13.3477 17.9246 13.8197 18.3975 14.4033 18.3975H20.1006L17.2061 31.5385C17.0765 32.1278 17.4489 32.7106 18.0386 32.8406C18.6231 32.969 19.2108 32.5978 19.3392 32.0091L22.337 18.3976H24.0798L27.0776 32.0091C27.1899 32.5187 27.6419 32.8665 28.1432 32.8658C28.2211 32.8658 28.3006 32.858 28.3794 32.8406C28.9691 32.7106 29.3415 32.1279 29.2107 31.5385L26.3165 18.3975H31.9458C32.5289 18.3975 33.0015 17.9246 33.0015 17.3419V1.43809C33.0014 0.855345 32.5288 0.381836 31.9457 0.381836Z" fill="white"/>
<path d="M23.5569 6.54943C23.4737 6.33971 23.2378 6.23674 23.0282 6.31975L16.8087 8.51501C16.2379 8.07306 15.4143 8.15202 14.9383 8.70564L12.9648 11.0103L11.2148 9.51031C11.2264 9.63418 11.2526 9.75455 11.2526 9.88166V13.138L12.2262 13.9722C12.804 14.4671 13.6682 14.3906 14.1513 13.824L16.5008 11.0766L18.3956 9.96811L23.3823 7.05052C23.5547 6.95112 23.6311 6.73871 23.5569 6.54943Z" fill="white"/>
<path d="M7.41272 7.13281H6.24068C5.34329 7.13281 4.5542 7.56896 4.05264 8.23378L0.454995 11.5461C-0.105569 12.0454 -0.156413 12.9103 0.348385 13.4743L3.28358 16.7505C3.78399 17.3108 4.65023 17.3603 5.21072 16.8567C5.7727 16.3531 5.82018 15.4904 5.31659 14.9291L3.29342 12.6699L6.16711 10.0984L4.49345 12.3723L6.13063 14.2002C7.03531 15.2111 6.95 16.7644 5.93953 17.6698C5.24963 18.2883 4.30814 18.4334 3.49194 18.1481C3.49194 18.1481 3.50462 24.4638 3.50462 31.2274C3.50462 32.1321 4.23788 32.8654 5.14262 32.8654C6.04641 32.8654 6.78061 32.1321 6.78061 31.2274C6.78061 24.4659 6.78061 28.3244 6.78061 21.4652H7.87322C7.87322 28.3194 7.87322 24.4638 7.87322 31.2274C7.87322 31.6997 7.74152 32.1371 7.53154 32.5242C7.80639 32.7356 8.14841 32.8654 8.52117 32.8654C9.42639 32.8654 10.1596 32.1321 10.1596 31.2274C10.1596 24.4659 10.1617 27.3004 10.1617 9.88101C10.1619 8.36318 8.93143 7.13281 7.41272 7.13281Z" fill="white"/>
<path d="M5.3669 6.14993C5.80487 6.37758 6.29659 6.51885 6.82479 6.51885C7.35433 6.51885 7.84605 6.37758 8.2853 6.14952C9.31054 5.61836 10.0172 4.56088 10.0172 3.32667C10.0172 1.56359 8.58794 0.134766 6.82472 0.134766C5.06177 0.134766 3.63281 1.56359 3.63281 3.32667C3.63288 4.56156 4.34031 5.61944 5.3669 6.14993Z" fill="white"/>
</g>
<defs>
<clipPath id="clip0_424_6697">
<rect width="33" height="33" fill="white"/>
</clipPath>
</defs>
</svg>
