<svg width="33" height="33" viewBox="0 0 33 33" fill="none" xmlns="http://www.w3.org/2000/svg">
<g clip-path="url(#clip0_424_6703)">
<path d="M10.9669 14.3477H7.6875V17.6274H10.9669V14.3477Z" fill="white"/>
<path d="M25.3146 14.3477H22.0352V17.6274H25.3146V14.3477Z" fill="white"/>
<path d="M20.5333 14.3477H17.2539V17.6274H20.5333V14.3477Z" fill="white"/>
<path d="M10.9669 19.4717H7.6875V22.7514H10.9669V19.4717Z" fill="white"/>
<path d="M20.5333 19.4717H17.2539V22.7514H20.5333V19.4717Z" fill="white"/>
<path d="M15.7521 19.4717H12.4727V22.7514H15.7521V19.4717Z" fill="white"/>
<path d="M25.3146 24.5957H22.0352V27.8754H25.3146V24.5957Z" fill="white"/>
<path d="M20.5333 24.5957H17.2539V27.8754H20.5333V24.5957Z" fill="white"/>
<path d="M15.7521 24.5957H12.4727V27.8754H15.7521V24.5957Z" fill="white"/>
<path d="M28.3144 3.54785H25.6476V6.10471C25.6476 7.05874 24.8616 7.83463 23.8956 7.83463H20.4135C19.4475 7.83463 18.6616 7.05874 18.6616 6.10471V3.54785H14.3371V6.08067C14.3371 7.04798 13.5425 7.83463 12.5657 7.83463H9.12236C8.14557 7.83463 7.35093 7.04798 7.35093 6.08067V3.54785H4.68412C2.94994 3.54785 1.53906 4.94597 1.53906 6.66442V29.8834C1.53906 31.6018 2.94994 33 4.68412 33H28.3144C30.0513 33 31.4643 31.6018 31.4643 29.8834V6.66442C31.4643 4.94603 30.0513 3.54785 28.3144 3.54785ZM29.2097 29.8229C29.2097 30.3746 28.839 30.7451 28.2873 30.7451H4.71602C4.1643 30.7451 3.79363 30.3746 3.79363 29.8229V11.4784H29.2097V29.8229Z" fill="white"/>
<path d="M9.12239 6.6069H12.5637C12.8551 6.6069 13.0921 6.37145 13.0921 6.08199V1.32084C13.0921 0.592518 12.4946 0 11.7601 0H9.92587C9.19142 0 8.59375 0.592453 8.59375 1.32084V6.08199C8.59381 6.37145 8.83087 6.6069 9.12239 6.6069Z" fill="white"/>
<path d="M20.4143 6.6069H23.8963C24.1766 6.6069 24.4045 6.38047 24.4045 6.10249V1.30054C24.4045 0.583494 23.8162 0 23.0928 0H21.2178C20.4946 0 19.9063 0.583494 19.9063 1.30054V6.10249C19.9062 6.38047 20.1342 6.6069 20.4143 6.6069Z" fill="white"/>
</g>
<defs>
<clipPath id="clip0_424_6703">
<rect width="33" height="33" fill="white"/>
</clipPath>
</defs>
</svg>
