<svg width="33" height="33" viewBox="0 0 33 33" fill="none" xmlns="http://www.w3.org/2000/svg">
<path d="M30.2518 9.10552V23.7119C30.2518 25.2421 29.2696 26.7724 27.7263 27.3287L20.7109 29.9718C20.29 30.1109 19.8691 30.25 19.3079 30.25C18.6063 30.25 17.7646 29.9718 17.063 29.5545C16.7824 29.2762 16.3615 28.9981 16.2211 28.7198H10.8895C8.78493 28.7198 6.96094 27.0505 6.96094 24.8248V23.4337C6.96094 22.8773 7.38187 22.3208 8.08339 22.3208C8.78493 22.3208 9.20584 22.7381 9.20584 23.4337V24.8248C9.20584 25.7986 10.0477 26.4941 10.8895 26.4941H15.5196V6.46246H10.8895C9.90737 6.46246 9.20584 7.15801 9.20584 8.13177V9.52284C9.20584 10.0793 8.78493 10.6357 8.08339 10.6357C7.38187 10.6357 6.96094 10.0793 6.96094 9.52284V8.13177C6.96094 6.04514 8.64462 4.23672 10.8895 4.23672H16.2211C16.5018 3.95851 16.7824 3.68029 17.063 3.40207C18.1854 2.70653 19.4482 2.56742 20.7109 2.98475L27.7263 5.62781C29.1293 6.04514 30.2518 7.57533 30.2518 9.10552Z" fill="white"/>
<path d="M6.67857 20.3727C6.39796 20.3727 6.11735 20.2337 5.97704 20.0946L3.17091 17.3124C3.03061 17.1733 3.03061 17.0342 2.89031 17.0342C2.89031 16.8951 2.75 16.7559 2.75 16.6169C2.75 16.4778 2.75 16.3386 2.89031 16.1996C2.89031 16.0605 3.03061 15.9213 3.17091 15.9213L5.97704 13.1392C6.39796 12.7218 7.0995 12.7218 7.52041 13.1392C7.94133 13.5565 7.94133 14.2521 7.52041 14.6694L6.53826 15.6432H12.2908C12.852 15.6432 13.4133 16.0605 13.4133 16.7559C13.4133 17.4516 12.852 17.5907 12.2908 17.5907H6.39796L7.38011 18.5643C7.80102 18.9817 7.80102 19.6773 7.38011 20.0946C7.2398 20.2337 6.95918 20.3727 6.67857 20.3727Z" fill="white"/>
</svg>
