<svg width="36" height="35" viewBox="0 0 36 35" fill="none" xmlns="http://www.w3.org/2000/svg">
<g clip-path="url(#clip0_783_2161)">
<mask id="mask0_783_2161" style="mask-type:luminance" maskUnits="userSpaceOnUse" x="2" y="1" width="33" height="33">
<path d="M2 1H34.4777V33.4631H2V1Z" fill="white"/>
</mask>
<g mask="url(#mask0_783_2161)">
<path d="M32.1874 1.0127H4.29707C3.03161 1.0127 2.00195 2.03467 2.00195 3.29112V31.1594C2.00195 32.4159 3.03161 33.4379 4.29707 33.4379H32.1874C33.4531 33.4379 34.4825 32.4159 34.4825 31.1594V3.29112C34.4825 2.03467 33.4531 1.0127 32.1874 1.0127ZM31.0878 3.77854C31.0878 4.04187 30.8727 4.25539 30.6075 4.25539H19.4047C19.1395 4.25539 18.9244 4.04187 18.9244 3.77854C18.9244 3.51521 19.1395 3.3017 19.4047 3.3017H30.6075C30.8727 3.3017 31.0878 3.51521 31.0878 3.77854ZM13.8094 3.77854C13.8094 4.04187 13.5946 4.25539 13.3291 4.25539H12.3384C12.0731 4.25539 11.8581 4.04187 11.8581 3.77854C11.8581 3.51521 12.0731 3.3017 12.3384 3.3017H13.3291C13.5946 3.3017 13.8094 3.51521 13.8094 3.77854ZM10.4787 3.77854C10.4787 4.04187 10.2636 4.25539 9.99833 4.25539H9.00763C8.74217 4.25539 8.52729 4.04187 8.52729 3.77854C8.52729 3.51521 8.74217 3.3017 9.00763 3.3017H9.99833C10.2636 3.3017 10.4787 3.51521 10.4787 3.77854ZM5.67666 3.3017H6.66736C6.93282 3.3017 7.1477 3.51521 7.1477 3.77854C7.1477 4.04187 6.93282 4.25539 6.66736 4.25539H5.67666C5.4114 4.25539 5.19632 4.04187 5.19632 3.77854C5.19632 3.51521 5.4114 3.3017 5.67666 3.3017ZM33.5219 31.1594C33.5219 31.89 32.9233 32.4842 32.1874 32.4842H4.29707C3.56135 32.4842 2.96263 31.89 2.96263 31.1594V6.54439H33.5219V31.1594ZM5.26646 29.8447V26.7838C5.26646 26.3085 5.65573 25.9219 6.13452 25.9219H9.21786C9.69645 25.9219 10.0859 26.3085 10.0859 26.7838V29.8447C10.0859 30.3198 9.69645 30.7065 9.21786 30.7065H6.13432C5.65573 30.7063 5.26646 30.3198 5.26646 29.8447ZM5.26646 23.9781V20.917C5.26646 20.4419 5.65573 20.0555 6.13452 20.0555H9.21786C9.69645 20.0555 10.0859 20.4419 10.0859 20.917V23.9781C10.0859 24.4532 9.69645 24.8399 9.21786 24.8399H6.13432C5.65573 24.8399 5.26646 24.4532 5.26646 23.9781ZM11.8069 21.2425C11.7815 21.0511 11.8747 20.8635 12.0429 20.767C12.2113 20.6704 12.4215 20.6843 12.5758 20.8018L16.0323 23.4374H30.9202C31.1855 23.4374 31.4006 23.6509 31.4006 23.9143C31.4006 24.1776 31.1855 24.3911 30.9202 24.3911H17.283L18.1575 25.0578C18.3127 25.1763 18.3801 25.3765 18.3274 25.5639C18.2749 25.7512 18.1129 25.8882 17.9184 25.9097L16.6145 26.055L16.7982 26.3706H30.9202C31.1855 26.3706 31.4006 26.5841 31.4006 26.8475C31.4006 27.1108 31.1855 27.3243 30.9202 27.3243H17.3528L18.2985 28.9505C18.3609 29.0574 18.3784 29.1842 18.3483 29.304H30.9202C31.1855 29.304 31.4006 29.5173 31.4006 29.7809C31.4006 30.0442 31.1855 30.2577 30.9202 30.2577H16.9784L16.7103 30.4114C16.6347 30.4547 16.552 30.4752 16.4706 30.4752C16.3127 30.4752 16.1594 30.3972 16.0683 30.2577H12.9666C12.7011 30.2577 12.4862 30.0442 12.4862 29.7809C12.4862 29.5173 12.7011 29.304 12.9666 29.304H15.5117L14.3702 27.3414L13.5919 28.3896C13.4756 28.5463 13.2752 28.6167 13.0854 28.5684C12.8957 28.52 12.7546 28.3621 12.729 28.1691L11.8069 21.2425ZM5.26646 18.1116V15.0504C5.26646 14.5753 5.65573 14.1889 6.13452 14.1889H9.21786C9.69645 14.1889 10.0859 14.5753 10.0859 15.0504V18.1116C10.0859 18.5867 9.69645 18.9733 9.21786 18.9733H6.13432C5.65573 18.9731 5.26646 18.5867 5.26646 18.1116ZM12.4862 12.1811C12.4862 11.9176 12.7011 11.7043 12.9666 11.7043H30.9202C31.1855 11.7043 31.4006 11.9176 31.4006 12.1811C31.4006 12.4444 31.1855 12.658 30.9202 12.658H12.9666C12.7011 12.658 12.4862 12.4444 12.4862 12.1811ZM31.4006 15.1143C31.4006 15.3776 31.1855 15.5911 30.9202 15.5911H15.6277C15.3625 15.5911 15.1474 15.3776 15.1474 15.1143C15.1474 14.851 15.3625 14.6375 15.6277 14.6375H30.9202C31.1855 14.6375 31.4006 14.851 31.4006 15.1143ZM15.1474 9.24772C15.1474 8.98439 15.3625 8.77088 15.6277 8.77088H30.9202C31.1855 8.77088 31.4006 8.98439 31.4006 9.24772C31.4006 9.51105 31.1855 9.72457 30.9202 9.72457H15.6277C15.3625 9.72457 15.1474 9.51105 15.1474 9.24772ZM5.26646 12.245V9.18386C5.26646 8.70875 5.65573 8.32231 6.13452 8.32231H9.21786C9.69645 8.32231 10.0859 8.70875 10.0859 9.18386V12.245C10.0859 12.7201 9.69645 13.1065 9.21786 13.1065H6.13432C5.65573 13.1065 5.26646 12.7201 5.26646 12.245ZM31.4006 20.9809C31.4006 21.2444 31.1855 21.4577 30.9202 21.4577H15.6277C15.3625 21.4577 15.1474 21.2444 15.1474 20.9809C15.1474 20.7176 15.3625 20.5042 15.6277 20.5042H30.9202C31.1855 20.5042 31.4006 20.7176 31.4006 20.9809ZM12.4862 18.0477C12.4862 17.7844 12.7011 17.5708 12.9666 17.5708H30.9202C31.1855 17.5708 31.4006 17.7844 31.4006 18.0477C31.4006 18.311 31.1855 18.5245 30.9202 18.5245H12.9666C12.7011 18.5245 12.4862 18.311 12.4862 18.0477Z" fill="white"/>
</g>
</g>
<defs>
<clipPath id="clip0_783_2161">
<rect width="36" height="35" fill="white"/>
</clipPath>
</defs>
</svg>
