<svg width="50" height="50" viewBox="0 0 50 50" fill="none" xmlns="http://www.w3.org/2000/svg">
<g clip-path="url(#clip0_421_2268)">
<path d="M25 50C38.8071 50 50 38.8071 50 25C50 11.1929 38.8071 0 25 0C11.1929 0 0 11.1929 0 25C0 38.8071 11.1929 50 25 50Z" fill="#E16B5A"/>
<path d="M47.7797 30.309C47.7527 30.2422 47.7277 30.175 47.698 30.1086C47.6719 30.0422 47.6469 29.9754 47.618 29.909C47.591 29.8418 47.5652 29.7738 47.5363 29.7062C47.5105 29.6414 47.4859 29.5762 47.4578 29.5117C47.4301 29.4422 47.4035 29.3734 47.3738 29.3047C47.348 29.2398 47.3234 29.1742 47.2957 29.1101C47.2684 29.0414 47.2426 28.9723 47.2121 28.9051C47.1867 28.8402 47.1625 28.7754 47.1344 28.7113C47.107 28.6426 47.0809 28.573 47.0508 28.5055C47.025 28.4406 47.0008 28.375 46.9723 28.3109C46.9453 28.2418 46.9191 28.173 46.8891 28.1058C46.8637 28.041 46.8395 27.9762 46.8109 27.9121C46.7836 27.8433 46.7582 27.7746 46.7281 27.7078C46.702 27.641 46.6766 27.5738 46.6477 27.5082C46.6211 27.4414 46.5961 27.3742 46.5668 27.3078C46.5402 27.2414 46.5152 27.1742 46.4859 27.1078C46.4594 27.0406 46.434 26.9726 46.4047 26.9062C46.3785 26.8398 46.3535 26.7734 46.3246 26.7078C46.2984 26.6414 46.2734 26.5746 46.2441 26.5086C46.2176 26.4406 46.1918 26.3726 46.1621 26.3051C46.1359 26.239 46.1117 26.173 46.0832 26.1078C46.0559 26.0402 46.0305 25.9726 46.0016 25.9055C45.975 25.8383 45.9496 25.7711 45.9207 25.7047C45.8941 25.6379 45.8688 25.5703 45.8391 25.5039C45.8125 25.4375 45.7879 25.3711 45.759 25.3055C45.7324 25.2375 45.707 25.1695 45.6773 25.1031C45.6516 25.0375 45.627 24.9711 45.598 24.9062C45.5715 24.8379 45.5453 24.7695 45.5156 24.7027C45.4895 24.6363 45.4652 24.5699 45.4355 24.5051C45.409 24.4379 45.3836 24.3699 45.3547 24.3031C45.3285 24.2371 45.3035 24.1711 45.2746 24.1058C45.2477 24.0367 45.2219 23.9676 45.1914 23.9C45.1656 23.8351 45.1418 23.7703 45.1129 23.7062C45.0859 23.6375 45.0602 23.5683 45.0297 23.5012C45.0043 23.4363 44.9801 23.3715 44.952 23.307C44.9246 23.2383 44.8984 23.1691 44.868 23.1015C44.8426 23.0367 44.8184 22.9711 44.7898 22.907C44.7625 22.8379 44.7367 22.7687 44.7062 22.7015C44.6805 22.6363 44.6566 22.5707 44.6277 22.5058C44.6008 22.4379 44.575 22.3699 44.5457 22.3027C44.5191 22.2359 44.4941 22.1691 44.4652 22.1031C44.4387 22.0363 44.4133 21.9691 44.3844 21.9031C44.3578 21.8363 44.3328 21.7691 44.3039 21.7035C44.277 21.6363 44.252 21.5683 44.2227 21.5015C44.1961 21.4351 44.1715 21.3683 44.1422 21.3027C44.1152 21.2351 44.0898 21.1668 44.0605 21.1004C44.0344 21.034 44.0098 20.9676 43.9805 20.9019C43.9535 20.8344 43.9281 20.7664 43.8988 20.6996C43.8727 20.6336 43.848 20.5668 43.8188 20.5012C43.7926 20.434 43.7672 20.3668 43.7375 20.3004C43.7109 20.234 43.6863 20.1676 43.6574 20.1019C43.6301 20.0336 43.6047 19.9652 43.575 19.8984C43.5492 19.8328 43.5246 19.7672 43.4957 19.7023C43.4691 19.6344 43.4437 19.5672 43.4148 19.5C43.3875 19.4328 43.3625 19.3648 43.3332 19.298C43.3066 19.2312 43.282 19.1648 43.2531 19.0992C43.2266 19.0328 43.2012 18.9656 43.1723 18.8992C43.1453 18.832 43.1203 18.7648 43.0906 18.6984C43.0641 18.6316 43.0395 18.564 43.0098 18.4976C42.9832 18.4312 42.9586 18.3648 42.9297 18.2992C42.9023 18.2308 42.877 18.1621 42.8465 18.0953C42.8211 18.0301 42.7969 17.9644 42.768 17.8996C42.7406 17.8308 42.7152 17.7621 42.6848 17.6953C42.6594 17.6305 42.6352 17.5644 42.6063 17.5C42.5793 17.432 42.5535 17.3637 42.5238 17.2965C42.498 17.2312 42.4742 17.1656 42.4453 17.1008C42.418 17.0312 42.3918 16.9625 42.3613 16.8941C42.3355 16.8293 42.3117 16.764 42.2828 16.6992C42.2559 16.6312 42.2301 16.5629 42.2004 16.4957C42.1742 16.4293 42.1492 16.3629 42.1203 16.2973C42.0934 16.2297 42.0676 16.1617 42.0387 16.0945C42.0125 16.0285 41.9875 15.9621 41.9586 15.8969C41.932 15.8301 41.9074 15.7629 41.8781 15.6973C41.852 15.6301 41.8266 15.5621 41.7969 15.4953C41.7703 15.4281 41.7449 15.3605 41.7156 15.2941C41.6895 15.2277 41.6645 15.1605 41.6352 15.0949C41.6086 15.0277 41.5832 14.9598 41.5535 14.893C41.5277 14.8269 41.5031 14.7609 41.4742 14.6961C41.4469 14.6273 41.4211 14.5582 41.3914 14.4914C41.366 14.4273 41.3422 14.3625 41.3141 14.2992C41.2867 14.2297 41.2602 14.1601 41.2297 14.0914C41.2043 14.0262 41.1797 13.9609 41.1516 13.8969C41.1242 13.8281 41.098 13.759 41.068 13.6914C41.0426 13.6265 41.018 13.5609 40.9898 13.4969C40.9625 13.4281 40.9363 13.359 40.9062 13.2918C40.8809 13.2265 40.8562 13.1613 40.8281 13.0969C40.8008 13.0277 40.7746 12.959 40.7449 12.8918C40.7191 12.8277 40.6953 12.7633 40.6672 12.7C40.6402 12.6308 40.6145 12.5617 40.584 12.4941C40.5578 12.4277 40.5328 12.3605 40.5039 12.2949C40.0332 11.1176 39.1711 10.0242 37.8375 9.05389C36.4391 8.0367 33.9754 8.54647 31.141 10.125C30.6625 11.1133 30.148 12.2277 29.6875 13.3012C29.6875 13.2465 29.6875 13.1953 29.6875 13.1394C29.557 13.2265 29.427 13.318 29.2969 13.4082C29.2969 13.257 29.2969 13.1004 29.2969 12.9402C29.2969 12.873 29.2969 12.809 29.2969 12.7398C29.2969 12.675 29.2969 12.6055 29.2969 12.5398C29.2969 12.4734 29.2969 12.407 29.2969 12.339C29.2969 12.2719 29.2969 12.2078 29.2969 12.139C29.1664 12.2258 29.0363 12.3172 28.9062 12.4078C28.9062 12.2551 28.9062 12.0996 28.9062 11.9394C28.9062 11.873 28.9062 11.8066 28.9062 11.7387C28.9062 11.6715 28.9062 11.6074 28.9062 11.5387C25.5852 13.8754 22.0246 17.3988 19.1812 21.4754C18.6938 23.239 18.523 25.0316 18.75 26.1668C18.2508 26.0004 17.6816 25.4078 17.1613 24.693C14.257 27.1734 14.7609 30.4164 13.8836 34.9996L9.34766 38.6715L12.5781 46.6914C16.2383 48.7922 20.477 49.9996 25 49.9996C36.1609 49.9996 45.6109 42.6836 48.8242 32.5875C48.2973 31.4371 47.7891 30.3308 47.7797 30.309Z" fill="#CC6152"/>
<path d="M11.9227 38.6723L17.2965 34.1941L16.2965 32.9941L9.48242 38.6723H11.9227Z" fill="#B3B3B3"/>
<path d="M32.8125 23.8279C34.4562 22.1842 36.6504 21.1006 38.2371 21.4939C41.5086 16.9689 42.3168 12.3166 37.8383 9.05877C36.4395 8.04159 33.9762 8.55135 31.1418 10.1299C30.3629 11.7377 29.4895 13.6795 28.9062 15.2342C28.9062 14.4014 28.9062 13.1662 28.9062 11.5447C25.5852 13.881 22.0246 17.4049 19.1812 21.481C18.6937 23.2447 18.523 25.0373 18.75 26.1724C18.2508 26.006 17.6816 25.4139 17.1613 24.699C14.0625 27.3435 14.8438 30.8592 13.6875 35.9435C17.5781 35.156 23.0469 36.3279 25.3734 32.3455C25.0773 32.2904 24.7742 32.1959 24.6094 32.031C25.3816 31.6451 26.3441 31.4498 27.2156 31.2568C30.7047 29.0846 34.0977 26.3572 36.6383 23.4838C35.1562 22.656 33.2961 24.0697 32.8125 23.8279Z" fill="#E6E6E6"/>
<path d="M13.6875 35.9441C14.8438 30.8597 14.0625 27.3441 17.1613 24.6984C17.6816 25.4133 18.2508 26.0062 18.75 26.1723C18.523 25.0379 18.6937 23.2445 19.1812 21.4808C22.0246 17.4047 25.5852 13.8816 28.9062 11.5445C28.9062 13.1664 28.9062 14.4015 28.9062 15.2344C29.4895 13.6801 30.3629 11.7379 31.141 10.1308C33.9754 8.55233 36.4391 8.04256 37.8375 9.05975C36.7187 14.4535 21.4844 30.0785 13.6875 35.9441Z" fill="#F5F5F5"/>
</g>
<defs>
<clipPath id="clip0_421_2268">
<rect width="50" height="50" fill="white"/>
</clipPath>
</defs>
</svg>
