<svg width="100" height="100" viewBox="0 0 100 100" fill="none" xmlns="http://www.w3.org/2000/svg">
<g clip-path="url(#clip0_298_900)">
<path d="M40.6641 10.2344C40.6641 5.42969 44.6094 1.48438 49.4141 1.48438C54.2188 1.48438 58.1641 5.42969 58.1641 10.2344C58.1641 15.0391 54.2188 18.9844 49.4141 18.9844C44.6094 18.9844 40.6641 15.0391 40.6641 10.2344ZM35.3125 44.2578H27.6172V31.875C27.6172 25.8594 32.4609 21.0156 38.4766 21.0156H60.2734C66.25 21.0156 71.1328 25.8984 71.1328 31.875V44.2578H63.5938V34.0625C63.5938 33.3984 63.125 32.9297 62.4609 32.9297C61.7969 32.9297 61.3281 33.3984 61.3281 34.0625H61.4062V44.2969H37.4609V34.0625C37.4609 33.3984 36.9922 32.9297 36.3281 32.9297C35.6641 32.9297 35.1953 33.3984 35.1953 34.0625L35.3125 44.2578ZM95.7031 46.6016V57.3437H86.1719V100H13.4766V57.3047H4.29688V46.5625L95.7031 46.6016Z" fill="black"/>
</g>
<defs>
<clipPath id="clip0_298_900">
<rect width="100" height="100" fill="white"/>
</clipPath>
</defs>
</svg>
