<svg width="50" height="50" viewBox="0 0 50 50" fill="none" xmlns="http://www.w3.org/2000/svg">
<g clip-path="url(#clip0_421_2234)">
<path d="M25 50C38.8071 50 50 38.8071 50 25C50 11.1929 38.8071 0 25 0C11.1929 0 0 11.1929 0 25C0 38.8071 11.1929 50 25 50Z" fill="#88C5CC"/>
<path d="M44.5312 22.0637C44.5312 22.0009 44.2832 21.8891 44.0543 21.8438L26.2098 19.5466C25.5531 19.4184 24.4703 19.4048 23.8137 19.5329L5.94844 21.797C5.72461 21.8411 5.46875 21.897 5.46875 21.968V22.168V22.2653V22.3684V22.4653V22.5762V22.6325V22.6661V22.7766V22.8055V22.8321V22.9762V23.0052V23.0466L15.6621 48.1899C18.5477 49.3536 21.6977 49.9997 25 49.9997C36.1695 49.9997 45.625 42.6735 48.8316 32.5657L44.5312 22.0637Z" fill="#80B9BF"/>
<path d="M12.5 21.4844V32.4219C12.9285 34.7656 18.3926 36.6797 25 36.6797C31.6074 36.6797 37.0113 34.7656 37.4398 32.4219H37.5V21.4844H12.5Z" fill="#2D424D"/>
<path d="M36.3289 21.4844V32.4219C35.9137 34.7656 30.7207 36.5348 24.3926 36.6461C24.5941 36.6492 24.7969 36.6656 25.0008 36.6656C31.6082 36.6656 37.0719 34.7656 37.5008 32.4219V21.4844H36.3289Z" fill="#253740"/>
<path d="M43.75 21.8751V22.3669L26.1402 20.129C25.4836 20.0013 24.5324 20.0013 23.8762 20.129L6.64062 22.3067V22.2657H5.46875V22.5767V22.6329V22.806C5.46875 22.8813 5.69961 22.9579 5.90156 23.0267L20.4867 27.4091C21.1199 27.6263 22.1777 27.6728 22.8273 27.5134L44.0629 22.9228C44.2852 22.8677 44.5309 22.8044 44.5309 22.7392V22.6329V22.5649V22.2657L43.75 21.8751Z" fill="#1E2C33"/>
<path d="M44.5312 21.9562C44.5312 21.8934 44.2832 21.8352 44.0543 21.7906L26.2098 19.5199C25.5531 19.3918 24.4703 19.3918 23.8137 19.5199L5.94844 21.7906C5.72461 21.8344 5.46875 21.8973 5.46875 21.968V22.2656C5.46875 22.341 5.69961 22.3492 5.90156 22.4184L20.4867 26.8008C21.1199 27.018 22.1777 27.0648 22.8273 26.9055C22.8273 26.9055 44.5309 22.3312 44.5309 22.2664L44.5312 21.9562Z" fill="#2D424D"/>
<path d="M30.6644 37.2313C30.3289 37.2313 30.0785 36.9595 30.0785 36.6231V25.8075L23.2414 23.5134C22.9226 23.4071 22.7734 23.0626 22.8797 22.7434C22.9859 22.4243 23.3429 22.2516 23.6605 22.3591L30.8972 24.7923C31.1461 24.8755 31.641 25.1282 31.641 25.3899V36.718C31.641 37.054 31 37.2313 30.6644 37.2313Z" fill="#FFD464"/>
<path d="M32.4219 37.8902C32.4219 37.8902 32.4219 36.8398 32.4219 36.623C32.4219 35.7832 31.6992 35.1016 30.8594 35.1016C30.0195 35.1016 29.2969 35.7828 29.2969 36.623C29.2969 36.8398 29.2969 37.8902 29.2969 37.8902H32.4219Z" fill="#E16B5A"/>
<path d="M32.4219 37.8906H29.2969V41.4062H32.4219V37.8906Z" fill="#FFD464"/>
<path d="M30.0781 37.8906H29.6875V41.4062H30.0781V37.8906Z" fill="#FFE399"/>
<path d="M30.8594 37.8906H30.4688V41.4062H30.8594V37.8906Z" fill="#FFE399"/>
<path d="M31.6406 37.8906H31.25V41.4062H31.6406V37.8906Z" fill="#FFE399"/>
</g>
<defs>
<clipPath id="clip0_421_2234">
<rect width="50" height="50" fill="white"/>
</clipPath>
</defs>
</svg>
